<?xml version="1.0" encoding="UTF-8"?>
<svg id="Layer_1" data-name="Layer 1" xmlns="http://www.w3.org/2000/svg" viewBox="0 0 150 150">
  <defs>
    <style>
      .cls-1 {
        fill: #231f20;
      }
    </style>
  </defs>
  <path class="cls-1" d="M75.19,113.44c-10.5,0-19.68-5.95-23.8-11.53-11.04-14.95-.86-44.76,24.22-70.9l1.15-1.2,1.07,1.27c23.13,27.45,31.58,57.69,20.1,71.89-4.15,5.14-12.71,10.36-22.48,10.46-.09,0-.18,0-.27,0ZM76.62,34.32c-22.85,24.4-32.66,52.5-22.82,65.82,3.68,4.99,11.93,10.31,21.38,10.31.08,0,.17,0,.25,0,8.79-.09,16.46-4.76,20.17-9.34,10.41-12.88,2.42-40.79-18.98-66.78Z"/>
  <path class="cls-1" d="M72.38,100.63c-.21,0-.41-.04-.61-.13-.76-.34-1.09-1.23-.75-1.98,2.92-6.52,4.63-13.43,5.07-20.55.46-7.48-.49-14.9-2.83-22.04-.26-.79.17-1.63.96-1.89.79-.26,1.63.17,1.89.96,2.46,7.5,3.46,15.29,2.97,23.16-.46,7.48-2.25,14.75-5.32,21.6-.25.56-.8.89-1.37.89Z"/>
  <path class="cls-1" d="M81.9,91.44c-.72,0-1.36-.52-1.48-1.25-.14-.82.42-1.59,1.23-1.73,1.64-.27,3.17-.86,4.54-1.75,1.19-.77,2.23-1.74,3.07-2.89.49-.67,1.43-.81,2.1-.32.67.49.81,1.43.32,2.1-1.06,1.44-2.36,2.66-3.85,3.62-1.72,1.11-3.63,1.85-5.68,2.19-.08.01-.17.02-.25.02Z"/>
  <path class="cls-1" d="M72.39,77.6c-.11,0-.23-.01-.34-.04-2.03-.47-3.96-1.2-5.74-2.17-2.07-1.13-3.85-2.53-5.31-4.18-.55-.62-.49-1.57.13-2.12.62-.55,1.57-.49,2.12.13,1.22,1.38,2.74,2.57,4.5,3.53,1.54.84,3.22,1.47,4.98,1.88.81.19,1.31.99,1.12,1.8-.16.69-.78,1.16-1.46,1.16Z"/>
</svg>