<?xml version="1.0" encoding="UTF-8"?>
<svg id="Layer_1" data-name="Layer 1" xmlns="http://www.w3.org/2000/svg" viewBox="0 0 150 150">
  <defs>
    <style>
      .cls-1 {
        fill: #231f20;
      }
    </style>
  </defs>
  <path class="cls-1" d="M66.52,102.55c-8.53,0-15.46-6.94-15.46-15.46s6.94-15.46,15.46-15.46,15.46,6.94,15.46,15.46-6.94,15.46-15.46,15.46ZM66.52,74.63c-6.87,0-12.46,5.59-12.46,12.46s5.59,12.46,12.46,12.46,12.46-5.59,12.46-12.46-5.59-12.46-12.46-12.46Z"/>
  <path class="cls-1" d="M88.63,77.55c-5.68,0-10.31-4.62-10.31-10.31s4.62-10.31,10.31-10.31,10.31,4.62,10.31,10.31-4.62,10.31-10.31,10.31ZM88.63,59.94c-4.03,0-7.31,3.28-7.31,7.31s3.28,7.31,7.31,7.31,7.31-3.28,7.31-7.31-3.28-7.31-7.31-7.31Z"/>
  <path class="cls-1" d="M66.52,63.79c-4.5,0-8.17-3.67-8.17-8.17s3.67-8.17,8.17-8.17,8.17,3.67,8.17,8.17-3.67,8.17-8.17,8.17ZM66.52,50.45c-2.85,0-5.17,2.32-5.17,5.17s2.32,5.17,5.17,5.17,5.17-2.32,5.17-5.17-2.32-5.17-5.17-5.17Z"/>
</svg>