<?xml version="1.0" encoding="UTF-8"?>
<svg id="Layer_1" data-name="Layer 1" xmlns="http://www.w3.org/2000/svg" viewBox="0 0 150 150">
  <defs>
    <style>
      .cls-1 {
        fill: #231f20;
      }
    </style>
  </defs>
  <path class="cls-1" d="M64.6,120.54c-2.18,0-4.38-.62-6-1.79-2.23-1.65-2.8-4.09-3.31-6.24-.34-1.46-.66-2.85-1.44-3.86l-.09-.12c-.79-1.08-1.81-2.03-2.89-3.03-1.61-1.49-3.27-3.03-4.29-5.16-1.1-2.1-.75-5.31.84-7.42,1.2-1.59,2.93-2.29,4.74-1.92,1.83.46,2.85,1.79,3.75,2.97.6.78,1.16,1.52,1.79,1.76.5.2,1.12.08,1.65-.32.81-.62,1.29-1.47,1.42-2.53.2-1.61-.44-3.63-1.63-5.15-1.68-2.44-4.27-4.04-7-5.73-3.29-2.04-6.7-4.15-8.48-7.76-.43-.81-.33-1.51-.16-1.95.17-.45.59-1.06,1.57-1.41.57-.23,1.25-1.29,1.86-2.23,1.02-1.56,2.27-3.52,4.47-3.49,2.09.06,3.16,1.6,3.93,2.72.38.56.74,1.08,1.11,1.3.24.12.32.07.37.04.5-.31.96-1.62.92-2.6.06-4.64-1.58-9.32-4.48-12.93-.91-1.03-1.18-2.33-.71-3.61.73-2.02,3.11-3.42,4.97-3.71,2.16-.45,4.3-.02,6.11,1.26,3.2,2.26,4.84,6.75,5.3,10.2.84,4.92,1.01,10.08.49,15.27-.06.8-.11,1.73.17,2.31.06.13.15.18.2.17.62-.16,1.27-1.34,1.7-2.12l3.59-6.64c3.18-5.41,4.33-9.59.31-13.86l-.09-.1c-.82-1.05-2.32-2.29-3.91-3.61-3.91-3.24-8.78-7.28-7.39-11.96,1.46-4.47,7.83-5.52,9.75-5.73,1.27-.11,2.38.5,3.01,1.63.48.77.96,1.64,1.42,2.48.48.88.95,1.72,1.45,2.51.22-.33.49-.8.8-1.39.09-.17.17-.31.23-.42.22-.44.46-.97.69-1.51.77-1.74,1.64-3.71,3.27-5,2.23-1.81,5.72-1.4,7.61.9,3.7,4.35,1.5,8.9-.44,12.92-.95,1.96-1.84,3.81-2.06,5.55-.19,1.46.02,2.64.63,3.51.8,1.12,2.48,1.95,3.6,1.34.57-.3.94-.99,1.38-1.79.46-.86.98-1.83,1.89-2.55,1.48-1.22,3.65-1.41,5.65-.5,2.21,1.01,3.54,2.83,3.75,5.12.28,2.97-1.41,6.38-4.1,8.29-2.04,1.59-4.55,2.54-6.98,3.45-1.97.74-3.87,1.45-5.47,2.49.51.11,1.02.27,1.5.5,1.64.77,2.81,2.15,3.22,3.8.66,2.4-.17,5.08-2.08,6.62-1.45,1.08-3.06,1.47-4.62,1.84-1.52.37-2.96.71-3.95,1.65l-.09.08c-1.29,1.05-2.26,2.5-2.73,4.09-.03.16-.08.33-.12.52-.06.24-.16.67-.2.98,1.24.28,2.29,1.01,3.08,2.14,1.08,1.54,1.53,3.64,1.16,5.46-.71,3.14-3.01,5.18-5.04,6.98-.53.47-1.05.93-1.54,1.41-2.68,2.43-4.56,5.79-5.79,10.31-.56,2.29-2.21,4.07-4.64,4.96-1.13.42-2.38.62-3.63.62ZM51.21,93.89c-.33,0-.86.12-1.39.83-.88,1.17-1.13,3.16-.55,4.27.8,1.66,2.18,2.94,3.64,4.3,1.14,1.05,2.31,2.14,3.28,3.46l.08.11c1.14,1.49,1.55,3.25,1.95,4.96.44,1.89.82,3.52,2.15,4.5,1.72,1.24,4.66,1.58,6.82.78,1.04-.38,2.36-1.19,2.77-2.9,1.39-5.12,3.56-8.95,6.64-11.74.48-.47,1.04-.97,1.61-1.47,1.86-1.65,3.61-3.2,4.1-5.36.19-.98-.08-2.25-.69-3.12-.39-.55-.85-.87-1.37-.95-.97-.13-1.52-.66-1.8-1.07-.76-1.11-.42-2.51-.17-3.53.04-.17.08-.32.11-.46l.03-.13c.63-2.16,1.94-4.15,3.69-5.59,1.57-1.47,3.53-1.94,5.27-2.36,1.32-.32,2.57-.62,3.49-1.3.92-.74,1.37-2.23,1.02-3.49-.27-1.08-1.11-1.61-1.59-1.84-.97-.45-2.11-.47-2.98-.04l-.15.06c-.38.17-1.35.61-2.15-.15-.38-.36-.66-1.04-.33-1.84l.14-.26c2.35-3.54,6.07-4.93,9.66-6.28,2.32-.87,4.51-1.69,6.24-3.04,1.86-1.32,3.08-3.71,2.9-5.61-.11-1.21-.79-2.11-2.01-2.67-.74-.34-1.8-.49-2.52.1-.45.36-.79.99-1.14,1.65-.58,1.08-1.24,2.3-2.61,3.02-2.64,1.42-5.87-.03-7.46-2.26-1.07-1.51-1.46-3.41-1.16-5.63.28-2.21,1.33-4.37,2.34-6.47,2.04-4.24,3.12-7,.84-9.69-.85-1.04-2.48-1.26-3.43-.48-1.07.85-1.72,2.32-2.41,3.87-.26.59-.52,1.16-.79,1.71-.08.15-.15.27-.22.41-.85,1.61-1.73,3.09-3.06,3.44-.59.15-1.2.06-1.71-.27l-.24-.15-.17-.23c-.9-1.23-1.64-2.58-2.36-3.88-.46-.84-.9-1.64-1.38-2.4-.09-.15-.12-.18-.12-.18-3.09.35-6.53,1.61-7.19,3.65-.81,2.74,3.04,5.94,6.44,8.76,1.69,1.4,3.29,2.73,4.32,4.02,5.55,5.94,3.15,12.1.07,17.34l-3.57,6.61c-.68,1.24-1.71,3.11-3.61,3.59-1.48.36-3.01-.4-3.65-1.82-.58-1.22-.53-2.63-.43-3.84.5-4.96.34-9.84-.47-14.55-.37-2.74-1.65-6.49-4.07-8.2-1.14-.81-2.4-1.06-3.84-.75-1.13.18-2.43,1.05-2.69,1.78-.05.13-.11.31.19.66,3.42,4.25,5.24,9.49,5.18,14.81.06,1.41-.51,4.05-2.32,5.19-1.04.65-2.27.66-3.45.02-.98-.59-1.57-1.44-2.09-2.2-.68-.98-1.02-1.41-1.52-1.43h0c-.51,0-1.27,1.18-1.89,2.12-.75,1.15-1.58,2.44-2.8,3.15,1.52,2.56,4.23,4.24,7.08,6.01,2.88,1.78,5.86,3.63,7.84,6.51,1.63,2.08,2.5,4.91,2.19,7.31-.23,1.86-1.13,3.43-2.58,4.55-1.4,1.06-3.11,1.32-4.58.72-1.38-.54-2.27-1.7-3.06-2.72-.69-.9-1.29-1.68-2.04-1.87-.05-.01-.15-.03-.28-.03Z"/>
</svg>