<?xml version="1.0" encoding="UTF-8"?>
<svg id="Layer_1" data-name="Layer 1" xmlns="http://www.w3.org/2000/svg" viewBox="0 0 432 432">
  <defs>
    <style>
      .cls-1 {
        fill: #856c43;
      }

      .cls-2 {
        fill: #ffeac5;
      }

      .cls-3 {
        fill: #78783a;
      }

      .cls-4 {
        fill: #171012;
      }

      .cls-5 {
        fill: #240d0e;
      }

      .cls-6 {
        fill: #d8cbcd;
      }

      .cls-7 {
        fill: #dcddc5;
      }

      .cls-8 {
        fill: #211b5a;
      }

      .cls-9 {
        fill: #f05236;
      }

      .cls-10 {
        fill: #ffd98b;
      }

      .cls-11 {
        fill: #cccdd6;
      }

      .cls-12 {
        fill: #b22928;
      }

      .cls-13 {
        fill: #111138;
      }

      .cls-14 {
        fill: #eae1e1;
      }

      .cls-15 {
        fill: #9ca338;
      }
    </style>
  </defs>
  <g>
    <rect class="cls-3" x="147.16" y="136.72" width="43.8" height="83.99" transform="translate(347.77 9.66) rotate(90)"/>
    <rect class="cls-15" x="133.95" y="79.72" width="70.21" height="83.99" transform="translate(290.77 -47.34) rotate(90)"/>
    <rect class="cls-7" x="147.57" y="23.13" width="42.98" height="83.99" transform="translate(234.18 -103.93) rotate(90)"/>
  </g>
  <g>
    <rect class="cls-1" x="100.21" y="314.64" width="43.8" height="83.99" transform="translate(478.75 234.53) rotate(90)"/>
    <rect class="cls-2" x="100.62" y="201.05" width="42.98" height="83.99" transform="translate(365.15 120.93) rotate(90)"/>
    <rect class="cls-10" x="87.01" y="257.64" width="70.21" height="83.99" transform="translate(421.74 177.52) rotate(90)"/>
  </g>
  <rect class="cls-13" x="194.1" y="314.23" width="43.8" height="83.99" transform="translate(572.23 140.23) rotate(90)"/>
  <rect class="cls-11" x="194.31" y="200.43" width="43.39" height="83.99" transform="translate(458.43 26.43) rotate(90)"/>
  <rect class="cls-8" x="180.9" y="257.23" width="70.21" height="83.99" transform="translate(515.22 83.22) rotate(90)"/>
  <g>
    <rect class="cls-5" x="274.79" y="256.82" width="70.21" height="83.99" transform="translate(608.7 -11.08) rotate(90)"/>
    <rect class="cls-4" x="287.99" y="313.82" width="43.8" height="83.99" transform="translate(665.71 45.93) rotate(90)"/>
    <rect class="cls-6" x="288.35" y="200.27" width="42.98" height="83.9" transform="translate(552.06 -67.62) rotate(90)"/>
  </g>
  <g>
    <rect class="cls-9" x="227.1" y="81.72" width="71.68" height="83.98" transform="translate(386.66 -139.23) rotate(90)"/>
    <rect class="cls-12" x="241.29" y="137.79" width="43.3" height="83.98" transform="translate(442.73 -83.16) rotate(90)"/>
    <rect class="cls-14" x="240.52" y="24.88" width="44.84" height="83.98" transform="translate(329.82 -196.07) rotate(90)"/>
  </g>
</svg>