<?xml version="1.0" encoding="UTF-8"?>
<svg id="Layer_1" data-name="Layer 1" xmlns="http://www.w3.org/2000/svg" viewBox="0 0 150 150">
  <defs>
    <style>
      .cls-1 {
        fill: #231f20;
      }
    </style>
  </defs>
  <path class="cls-1" d="M64.83,107.91c-3.93,0-7.64-1.81-10.07-4.87-2.2,1.01-4.56,1.57-7.02,1.68-10.45.47-19.36-7.67-19.82-18.14-.23-5.07,1.54-9.92,4.96-13.66,3.43-3.74,8.1-5.93,13.17-6.15h.03c.32-3.61,2.3-6.96,5.69-9.62,3.73-2.92,8.75-4.66,14.15-4.9,6.9-.3,13.38,1.93,17.34,5.9,2.99-2.4,6.79-3.81,10.85-3.99,9.58-.43,17.68,6.16,18.06,14.69,0,.15.01.29.01.43,5.56,1.28,9.63,6.1,9.89,11.92h0c.27,5.97-3.72,11.36-9.39,12.94-1.45,5.36-6.18,9.18-11.81,9.43-3.02.14-5.92-.77-8.29-2.57-2.17,1.86-4.88,2.94-7.77,3.07-3.21.14-6.28-.89-8.7-2.89-2.11,3.9-6.18,6.52-10.72,6.72-.19,0-.38.01-.57.01ZM55.76,99.13l.75,1.19c1.88,2.98,5.23,4.73,8.75,4.58,4.08-.18,7.66-2.91,8.91-6.79l.83-2.56,1.74,2.05c1.99,2.34,4.88,3.61,7.94,3.47,2.59-.12,4.98-1.22,6.75-3.11l1.03-1.11,1.1,1.04c1.95,1.85,4.5,2.81,7.19,2.68,4.57-.2,8.36-3.48,9.22-7.96l.19-1,1-.19c4.74-.92,8.15-5.26,7.94-10.09-.21-4.82-3.84-8.74-8.62-9.32l-1.46-.18.14-1.46c.05-.47.06-.92.04-1.4-.31-6.87-7-12.17-14.93-11.82-3.88.17-7.45,1.65-10.06,4.17l-.4.39-1.32.07-.49-.59c-3.21-3.96-9.31-6.24-15.92-5.95-4.78.21-9.19,1.73-12.43,4.27-3.09,2.42-4.72,5.49-4.58,8.62l.07,1.66-1.65-.03c-.4-.02-.81-.02-1.28,0-4.27.19-8.21,2.03-11.09,5.18-2.88,3.15-4.37,7.24-4.18,11.5.39,8.81,7.87,15.66,16.69,15.27,2.45-.11,4.78-.75,6.91-1.92l1.24-.67Z"/>
</svg>