<?xml version="1.0" encoding="UTF-8"?>
<svg id="Layer_1" data-name="Layer 1" xmlns="http://www.w3.org/2000/svg" viewBox="0 0 511.8 215.74">
  <defs>
    <style>
      .cls-1 {
        fill: #856c43;
      }

      .cls-2 {
        fill: #ffeac5;
      }

      .cls-3 {
        fill: #78783a;
      }

      .cls-4 {
        fill: #171012;
      }

      .cls-5 {
        fill: #240d0e;
      }

      .cls-6 {
        fill: #d8cbcd;
      }

      .cls-7 {
        fill: #dcddc5;
      }

      .cls-8 {
        fill: #211b5a;
      }

      .cls-9 {
        fill: #f05236;
      }

      .cls-10 {
        fill: #ffd98b;
      }

      .cls-11 {
        fill: #cccdd6;
      }

      .cls-12 {
        fill: #b22928;
      }

      .cls-13 {
        fill: #111138;
      }

      .cls-14 {
        fill: #eae1e1;
      }

      .cls-15 {
        fill: #9ca338;
      }
    </style>
  </defs>
  <g>
    <rect class="cls-3" x="48.27" y="128.74" width="43.8" height="83.99" transform="translate(240.9 100.56) rotate(90)"/>
    <rect class="cls-15" x="35.07" y="71.74" width="70.21" height="83.99" transform="translate(183.9 43.56) rotate(90)"/>
    <rect class="cls-7" x="48.68" y="15.14" width="42.98" height="83.99" transform="translate(127.31 -13.03) rotate(90)"/>
  </g>
  <g>
    <rect class="cls-1" x="236.05" y="129.56" width="43.8" height="83.99" transform="translate(429.5 -86.4) rotate(90)"/>
    <rect class="cls-2" x="236.46" y="15.96" width="42.98" height="83.99" transform="translate(315.91 -199.99) rotate(90)"/>
    <rect class="cls-10" x="222.85" y="72.56" width="70.21" height="83.99" transform="translate(372.5 -143.4) rotate(90)"/>
  </g>
  <rect class="cls-13" x="329.94" y="129.15" width="43.8" height="83.99" transform="translate(522.98 -180.7) rotate(90)"/>
  <rect class="cls-11" x="330.14" y="15.35" width="43.39" height="83.99" transform="translate(409.18 -294.5) rotate(90)"/>
  <rect class="cls-8" x="316.74" y="72.15" width="70.21" height="83.99" transform="translate(465.98 -237.7) rotate(90)"/>
  <g>
    <rect class="cls-5" x="410.63" y="71.74" width="70.21" height="83.99" transform="translate(559.46 -332) rotate(90)"/>
    <rect class="cls-4" x="423.83" y="128.74" width="43.8" height="83.99" transform="translate(616.46 -275) rotate(90)"/>
    <rect class="cls-6" x="424.19" y="15.19" width="42.98" height="83.9" transform="translate(502.82 -388.55) rotate(90)"/>
  </g>
  <g>
    <rect class="cls-9" x="128.22" y="73.74" width="71.68" height="83.98" transform="translate(279.79 -48.33) rotate(90)"/>
    <rect class="cls-12" x="142.41" y="129.81" width="43.3" height="83.98" transform="translate(335.86 7.74) rotate(90)"/>
    <rect class="cls-14" x="141.64" y="16.9" width="44.84" height="83.98" transform="translate(222.95 -105.17) rotate(90)"/>
  </g>
</svg>