<?xml version="1.0" encoding="UTF-8"?>
<svg id="Layer_1" data-name="Layer 1" xmlns="http://www.w3.org/2000/svg" viewBox="0 0 150 150">
  <defs>
    <style>
      .cls-1 {
        fill: #231f20;
      }

      .cls-2 {
        fill: none;
        stroke: #231f20;
        stroke-linecap: round;
        stroke-miterlimit: 10;
        stroke-width: 3px;
      }
    </style>
  </defs>
  <path class="cls-1" d="M75,92.95c-10.83,0-19.65-8.81-19.65-19.65s8.81-19.65,19.65-19.65,19.65,8.81,19.65,19.65-8.81,19.65-19.65,19.65ZM75,56.66c-9.18,0-16.65,7.47-16.65,16.65s7.47,16.65,16.65,16.65,16.65-7.47,16.65-16.65-7.47-16.65-16.65-16.65Z"/>
  <g>
    <line class="cls-2" x1="81.25" y1="97.9" x2="82.97" y2="104.91"/>
    <line class="cls-2" x1="61.44" y1="94.87" x2="57.7" y2="101.05"/>
    <line class="cls-2" x1="49.57" y1="78.72" x2="42.56" y2="80.45"/>
    <line class="cls-2" x1="52.6" y1="58.91" x2="46.42" y2="55.17"/>
    <line class="cls-2" x1="68.75" y1="47.05" x2="67.03" y2="40.03"/>
    <line class="cls-2" x1="88.56" y1="50.08" x2="92.3" y2="43.9"/>
    <line class="cls-2" x1="100.42" y1="66.23" x2="107.44" y2="64.5"/>
    <line class="cls-2" x1="97.4" y1="86.03" x2="103.58" y2="89.78"/>
  </g>
</svg>