<?xml version="1.0" encoding="UTF-8"?>
<svg id="Layer_1" data-name="Layer 1" xmlns="http://www.w3.org/2000/svg" viewBox="0 0 150 150">
  <defs>
    <style>
      .cls-1 {
        fill: #231f20;
      }
    </style>
  </defs>
  <path class="cls-1" d="M103.44,105.72c-.38,0-.76-.1-1.09-.29-.85-.49-1.25-1.5-.99-2.45,1.2-4.38-.72-9.06-4.66-11.35-3.9-2.27-8.88-1.66-12.1,1.49-.76.73-1.9.87-2.78.36-.93-.54-1.37-1.54-1.17-2.52.92-4.24-.96-8.56-4.67-10.78-3.73-2.11-8.41-1.61-11.63,1.27-.77.67-1.85.78-2.71.29-.96-.56-1.4-1.62-1.14-2.63,1.15-4.37-.78-9-4.68-11.27-3.94-2.3-8.95-1.65-12.18,1.56-.69.69-1.76.84-2.61.35-.5-.29-.86-.77-1-1.33-.14-.56-.06-1.15.24-1.64,10.56-17.42,33.48-23.25,51.1-13,17.61,10.25,23.87,33.06,13.94,50.85h0c-.28.51-.75.87-1.31,1.02-.19.05-.38.08-.57.08ZM104.26,103.77s0,0,0,.01c0,0,0,0,0-.01ZM91.65,87.27c2.26,0,4.52.58,6.57,1.77,3.7,2.15,6.02,5.92,6.44,9.99,6.16-15.62.09-34.01-14.79-42.67-14.87-8.66-33.87-4.85-44.4,8.22,3.75-1.65,8.17-1.49,11.87.66,4.55,2.65,7.03,7.77,6.4,12.88,4.06-2.75,9.39-3.02,13.76-.54,4.33,2.58,6.74,7.35,6.35,12.24,2.28-1.69,5.03-2.56,7.8-2.56ZM41.53,67.28s0,0,0,0h0Z"/>
  <path class="cls-1" d="M59.62,111.42c-.24,0-.48-.06-.71-.18-.73-.39-1-1.3-.61-2.03l16.26-30.14c.39-.73,1.3-1,2.03-.61.73.39,1,1.3.61,2.03l-16.26,30.14c-.27.5-.79.79-1.32.79Z"/>
</svg>