<?xml version="1.0" encoding="UTF-8"?>
<svg id="Layer_1" data-name="Layer 1" xmlns="http://www.w3.org/2000/svg" viewBox="0 0 123.63 130">
  <defs>
    <style>
      .cls-1 {
        fill: #560005;
      }

      .cls-2 {
        fill: #b20e34;
      }

      .cls-3 {
        fill: #e19f00;
      }

      .cls-4 {
        fill: #9a6f13;
      }

      .cls-5 {
        fill: #af7d1a;
      }

      .cls-6 {
        fill: #750617;
      }
    </style>
  </defs>
  <g>
    <g>
      <g id="_Radial_Repeat_" data-name="&amp;lt;Radial Repeat&amp;gt;">
        <path class="cls-1" d="M47.23,97.08c2.86,3.34,23.3-48.04.42-47.94-18.7.08-2.97,49.76-.42,47.94Z"/>
      </g>
      <g id="_Radial_Repeat_-2" data-name="&amp;lt;Radial Repeat&amp;gt;">
        <path class="cls-1" d="M.59,47.95c-3.34,2.86,48.04,23.3,47.94.42-.08-18.7-49.76-2.97-47.94-.42Z"/>
      </g>
      <g id="_Radial_Repeat_-3" data-name="&amp;lt;Radial Repeat&amp;gt;">
        <path class="cls-1" d="M49.73,1.32c-2.86-3.34-23.3,48.04-.42,47.94,18.7-.08,2.97-49.76.42-47.94Z"/>
      </g>
      <g id="_Radial_Repeat_-4" data-name="&amp;lt;Radial Repeat&amp;gt;">
        <path class="cls-1" d="M96.36,50.45c3.34-2.86-48.04-23.3-47.94-.42.08,18.7,49.76,2.97,47.94.42Z"/>
      </g>
    </g>
    <g>
      <g id="_Radial_Repeat_-5" data-name="&amp;lt;Radial Repeat&amp;gt;">
        <path class="cls-4" d="M30.8,65.96s18.09-13.12,16.11-15.18c-1.98-2.06-16.11,15.18-16.11,15.18Z"/>
      </g>
      <g id="_Radial_Repeat_-6" data-name="&amp;lt;Radial Repeat&amp;gt;">
        <path class="cls-4" d="M31.72,32.45s13.12,18.09,15.18,16.11c2.06-1.98-15.18-16.11-15.18-16.11Z"/>
      </g>
      <g id="_Radial_Repeat_-7" data-name="&amp;lt;Radial Repeat&amp;gt;">
        <path class="cls-4" d="M65.22,33.37s-18.09,13.12-16.11,15.18c1.98,2.06,16.11-15.18,16.11-15.18Z"/>
      </g>
      <g id="_Radial_Repeat_-8" data-name="&amp;lt;Radial Repeat&amp;gt;">
        <path class="cls-4" d="M64.3,66.88s-13.12-18.09-15.18-16.11c-2.06,1.98,15.18,16.11,15.18,16.11Z"/>
      </g>
    </g>
  </g>
  <g>
    <g>
      <path class="cls-6" d="M61.99,113.98c2.93,3.28,22.34-48.48-.54-47.94-18.7.44-1.97,49.81.54,47.94Z"/>
      <path class="cls-6" d="M14.51,65.93c-3.28,2.93,48.48,22.34,47.94-.54-.44-18.7-49.81-1.97-47.94.54Z"/>
      <path class="cls-6" d="M62.56,18.45c-2.93-3.28-22.34,48.48.54,47.94,18.7-.44,1.97-49.81-.54-47.94Z"/>
      <path class="cls-6" d="M110.04,66.5c3.28-2.93-48.48-22.34-47.94.54.44,18.7,49.81,1.97,47.94-.54Z"/>
    </g>
    <g>
      <g id="_Radial_Repeat_-9" data-name="&amp;lt;Radial Repeat&amp;gt;">
        <path class="cls-5" d="M45.2,83.58s17.61-13.74,15.56-15.73c-2.05-1.99-15.56,15.73-15.56,15.73Z"/>
      </g>
      <g id="_Radial_Repeat_-10" data-name="&amp;lt;Radial Repeat&amp;gt;">
        <path class="cls-5" d="M44.94,50.07s13.74,17.61,15.73,15.56c1.99-2.05-15.73-15.56-15.73-15.56Z"/>
      </g>
      <g id="_Radial_Repeat_-11" data-name="&amp;lt;Radial Repeat&amp;gt;">
        <path class="cls-5" d="M78.45,49.81s-17.61,13.74-15.56,15.73c2.05,1.99,15.56-15.73,15.56-15.73Z"/>
      </g>
      <g id="_Radial_Repeat_-12" data-name="&amp;lt;Radial Repeat&amp;gt;">
        <path class="cls-5" d="M78.71,83.32s-13.74-17.61-15.73-15.56c-1.99,2.05,15.73,15.56,15.73,15.56Z"/>
      </g>
    </g>
  </g>
  <g>
    <g>
      <g id="_Radial_Repeat_-13" data-name="&amp;lt;Radial Repeat&amp;gt;">
        <path class="cls-2" d="M77.02,129.86c3,3.22,21.2-48.98-1.66-47.91-18.68.87-.81,49.84,1.66,47.91Z"/>
      </g>
      <g id="_Radial_Repeat_-14" data-name="&amp;lt;Radial Repeat&amp;gt;">
        <path class="cls-2" d="M28.95,83.39c-3.22,3,48.98,21.2,47.91-1.66-.87-18.68-49.84-.81-47.91,1.66Z"/>
      </g>
      <g id="_Radial_Repeat_-15" data-name="&amp;lt;Radial Repeat&amp;gt;">
        <path class="cls-2" d="M75.41,35.32c-3-3.22-21.2,48.98,1.66,47.91,18.68-.87.81-49.84-1.66-47.91Z"/>
      </g>
      <g id="_Radial_Repeat_-16" data-name="&amp;lt;Radial Repeat&amp;gt;">
        <path class="cls-2" d="M123.48,81.79c3.22-3-48.98-21.2-47.91,1.66.87,18.68,49.84.81,47.91-1.66Z"/>
      </g>
    </g>
    <g>
      <g id="_Radial_Repeat_-17" data-name="&amp;lt;Radial Repeat&amp;gt;">
        <path class="cls-3" d="M59.14,99.95s17.61-13.74,15.56-15.73c-2.05-1.99-15.56,15.73-15.56,15.73Z"/>
      </g>
      <g id="_Radial_Repeat_-18" data-name="&amp;lt;Radial Repeat&amp;gt;">
        <path class="cls-3" d="M58.88,66.45s13.74,17.61,15.73,15.56c1.99-2.05-15.73-15.56-15.73-15.56Z"/>
      </g>
      <g id="_Radial_Repeat_-19" data-name="&amp;lt;Radial Repeat&amp;gt;">
        <path class="cls-3" d="M92.39,66.19s-17.61,13.74-15.56,15.73c2.05,1.99,15.56-15.73,15.56-15.73Z"/>
      </g>
      <g id="_Radial_Repeat_-20" data-name="&amp;lt;Radial Repeat&amp;gt;">
        <path class="cls-3" d="M92.65,99.69s-13.74-17.61-15.73-15.56c-1.99,2.05,15.73,15.56,15.73,15.56Z"/>
      </g>
    </g>
  </g>
</svg>