<?xml version="1.0" encoding="UTF-8"?>
<svg id="Layer_1" xmlns="http://www.w3.org/2000/svg" version="1.1" viewBox="0 0 150 30">
  <!-- Generator: Adobe Illustrator 29.4.0, SVG Export Plug-In . SVG Version: 2.1.0 Build 152)  -->
  <defs>
    <style>
      .st0 {
        fill: #231f20;
      }

      .st1 {
        fill: #b20e34;
      }

      .st2 {
        fill: #e19f00;
      }

      .st3 {
        fill: #9a6f13;
      }

      .st4 {
        isolation: isolate;
      }

      .st5 {
        fill: #560005;
      }

      .st6 {
        fill: #af7d1a;
      }

      .st7 {
        fill: #750617;
      }
    </style>
  </defs>
  <g>
    <g>
      <g id="_Radial_Repeat_">
        <path class="st5" d="M11.84,21.68c.61.71,4.93-10.15.09-10.13-3.95.02-.63,10.51-.09,10.13Z"/>
      </g>
      <g id="_Radial_Repeat_-2">
        <path class="st5" d="M1.99,11.3c-.71.61,10.15,4.93,10.13.09-.02-3.95-10.51-.63-10.13-.09Z"/>
      </g>
      <g id="_Radial_Repeat_-3">
        <path class="st5" d="M12.37,1.44c-.61-.71-4.93,10.15-.09,10.13,3.95-.02.63-10.51.09-10.13Z"/>
      </g>
      <g id="_Radial_Repeat_-4">
        <path class="st5" d="M22.22,11.83c.71-.61-10.15-4.93-10.13-.09.02,3.95,10.51.63,10.13.09Z"/>
      </g>
    </g>
    <g>
      <g id="_Radial_Repeat_-5">
        <path class="st3" d="M8.37,15.1s3.82-2.77,3.4-3.21-3.4,3.21-3.4,3.21Z"/>
      </g>
      <g id="_Radial_Repeat_-6">
        <path class="st3" d="M8.56,8.02s2.77,3.82,3.21,3.4-3.21-3.4-3.21-3.4Z"/>
      </g>
      <g id="_Radial_Repeat_-7">
        <path class="st3" d="M15.64,8.21s-3.82,2.77-3.4,3.21c.42.44,3.4-3.21,3.4-3.21Z"/>
      </g>
      <g id="_Radial_Repeat_-8">
        <path class="st3" d="M15.45,15.29s-2.77-3.82-3.21-3.4c-.44.42,3.21,3.4,3.21,3.4Z"/>
      </g>
    </g>
  </g>
  <g>
    <g>
      <path class="st7" d="M14.96,25.24c.62.69,4.72-10.24-.12-10.13-3.95.09-.42,10.52.12,10.13Z"/>
      <path class="st7" d="M4.93,15.09c-.69.62,10.24,4.72,10.13-.12-.09-3.95-10.52-.42-10.13.12Z"/>
      <path class="st7" d="M15.08,5.06c-.62-.69-4.72,10.24.12,10.13,3.95-.09.42-10.52-.12-10.13Z"/>
      <path class="st7" d="M25.11,15.22c.69-.62-10.24-4.72-10.13.12.09,3.95,10.52.42,10.13-.12Z"/>
    </g>
    <g>
      <g id="_Radial_Repeat_-9">
        <path class="st6" d="M11.41,18.82s3.72-2.9,3.29-3.32c-.43-.42-3.29,3.32-3.29,3.32Z"/>
      </g>
      <g id="_Radial_Repeat_-10">
        <path class="st6" d="M11.36,11.74s2.9,3.72,3.32,3.29c.42-.43-3.32-3.29-3.32-3.29Z"/>
      </g>
      <g id="_Radial_Repeat_-11">
        <path class="st6" d="M18.44,11.69s-3.72,2.9-3.29,3.32c.43.42,3.29-3.32,3.29-3.32Z"/>
      </g>
      <g id="_Radial_Repeat_-12">
        <path class="st6" d="M18.49,18.77s-2.9-3.72-3.32-3.29c-.42.43,3.32,3.29,3.32,3.29Z"/>
      </g>
    </g>
  </g>
  <g>
    <g>
      <g id="_Radial_Repeat_-13">
        <path class="st1" d="M18.13,28.6c.64.68,4.48-10.35-.35-10.12-3.95.18-.17,10.53.35,10.12Z"/>
      </g>
      <g id="_Radial_Repeat_-14">
        <path class="st1" d="M7.98,18.79c-.68.64,10.35,4.48,10.12-.35-.18-3.95-10.53-.17-10.12.35Z"/>
      </g>
      <g id="_Radial_Repeat_-15">
        <path class="st1" d="M17.79,8.63c-.64-.68-4.48,10.35.35,10.12,3.95-.18.17-10.53-.35-10.12Z"/>
      </g>
      <g id="_Radial_Repeat_-16">
        <path class="st1" d="M27.95,18.45c.68-.64-10.35-4.48-10.12.35.18,3.95,10.53.17,10.12-.35Z"/>
      </g>
    </g>
    <g>
      <g id="_Radial_Repeat_-17">
        <path class="st2" d="M14.36,22.28s3.72-2.9,3.29-3.32c-.43-.42-3.29,3.32-3.29,3.32Z"/>
      </g>
      <g id="_Radial_Repeat_-18">
        <path class="st2" d="M14.3,15.21s2.9,3.72,3.32,3.29c.42-.43-3.32-3.29-3.32-3.29Z"/>
      </g>
      <g id="_Radial_Repeat_-19">
        <path class="st2" d="M21.38,15.15s-3.72,2.9-3.29,3.32c.43.42,3.29-3.32,3.29-3.32Z"/>
      </g>
      <g id="_Radial_Repeat_-20">
        <path class="st2" d="M21.43,22.23s-2.9-3.72-3.32-3.29c-.42.43,3.32,3.29,3.32,3.29Z"/>
      </g>
    </g>
  </g>
  <g class="st4">
    <path class="st0" d="M37.93,12.64h1.46v7.81h-1.46v-1.39c-.52.94-1.61,1.59-2.86,1.59-2.04,0-3.83-1.72-3.83-4.11s1.69-4.1,3.9-4.1c1.17,0,2.27.5,2.79,1.42v-1.22ZM37.93,16.54c0-1.61-1.35-2.73-2.66-2.73-1.42,0-2.56,1.25-2.56,2.73s1.14,2.74,2.58,2.74,2.64-1.15,2.64-2.74Z"/>
    <path class="st0" d="M49.12,15.94v4.52h-1.45v-4.43c0-1.3-.8-2.14-1.89-2.14s-2.39.65-2.39,2.34v4.23h-1.46v-7.81h1.46v1.19c.47-.95,1.74-1.39,2.59-1.39,1.94,0,3.16,1.3,3.14,3.5Z"/>
    <path class="st0" d="M57.72,12.64h1.45v6.72c0,3.7-1.67,5.08-4.25,5.08-1.42,0-2.74-.72-3.51-2.09l1.24-.65c.49.89,1.4,1.37,2.27,1.37,1.72,0,2.79-.97,2.79-3.61v-.23c-.52.89-1.66,1.42-2.78,1.42-2.14,0-3.91-1.66-3.91-4.11s1.76-4.1,3.9-4.1c1.17,0,2.27.52,2.79,1.42v-1.22ZM57.72,16.52c0-1.69-1.37-2.71-2.66-2.71-1.42,0-2.56,1.14-2.56,2.71s1.14,2.76,2.56,2.76,2.66-1.09,2.66-2.76Z"/>
    <path class="st0" d="M69.06,17.18h-6.36c.22,1.39,1.22,2.11,2.56,2.11.95,0,1.82-.43,2.27-1.22l1.25.5c-.67,1.35-2.07,2.09-3.58,2.09-2.22,0-4.01-1.66-4.01-4.13s1.79-4.08,4.01-4.08,3.88,1.61,3.88,4.08c0,.22-.02.44-.03.65ZM67.64,15.92c-.18-1.34-1.14-2.11-2.43-2.11s-2.26.7-2.49,2.11h4.92Z"/>
    <path class="st0" d="M71.08,20.45v-12.06h1.45v12.06h-1.45Z"/>
    <path class="st0" d="M74.76,9.77c0-.55.47-.97,1.02-.97s1.04.42,1.04.97-.47.97-1.04.97-1.02-.42-1.02-.97ZM75.06,20.45v-7.81h1.46v7.81h-1.46Z"/>
  </g>
  <g class="st4">
    <path class="st0" d="M78.5,16.54c0-2.48,1.96-4.1,4.2-4.1,1.22,0,2.29.49,2.98,1.24l-.92.95c-.49-.5-1.19-.82-2.01-.82-1.54,0-2.78,1.12-2.78,2.73s1.24,2.74,2.78,2.74c.82,0,1.52-.32,2.01-.82l.92.95c-.69.77-1.76,1.24-2.98,1.24-2.24,0-4.2-1.64-4.2-4.11Z"/>
  </g>
  <g class="st4">
    <path class="st0" d="M93.47,12.64h1.45v7.81h-1.45v-1.39c-.52.94-1.61,1.59-2.86,1.59-2.04,0-3.83-1.72-3.83-4.11s1.69-4.1,3.9-4.1c1.17,0,2.27.5,2.79,1.42v-1.22ZM93.47,16.54c0-1.61-1.35-2.73-2.66-2.73-1.42,0-2.56,1.25-2.56,2.73s1.14,2.74,2.58,2.74,2.64-1.15,2.64-2.74Z"/>
    <path class="st0" d="M109.84,16.56c0,2.48-1.76,4.1-3.9,4.1-1.17,0-2.27-.5-2.79-1.42v5.02h-1.45v-11.61h1.45v1.22c.52-.89,1.66-1.42,2.78-1.42,2.14,0,3.91,1.66,3.91,4.11ZM108.37,16.57c0-1.56-1.14-2.76-2.58-2.76s-2.64,1.09-2.64,2.76,1.37,2.71,2.64,2.71c1.44,0,2.58-1.14,2.58-2.71Z"/>
    <path class="st0" d="M118.02,12.64h1.46v7.81h-1.46v-1.39c-.52.94-1.61,1.59-2.86,1.59-2.04,0-3.83-1.72-3.83-4.11s1.69-4.1,3.9-4.1c1.17,0,2.27.5,2.79,1.42v-1.22ZM118.02,16.54c0-1.61-1.35-2.73-2.66-2.73-1.42,0-2.56,1.25-2.56,2.73s1.14,2.74,2.58,2.74,2.64-1.15,2.64-2.74Z"/>
    <path class="st0" d="M122.02,20.45v-12.06h1.45v12.06h-1.45Z"/>
    <path class="st0" d="M125.7,9.77c0-.55.47-.97,1.02-.97s1.04.42,1.04.97-.47.97-1.04.97-1.02-.42-1.02-.97ZM126,20.45v-7.81h1.45v7.81h-1.45Z"/>
    <path class="st0" d="M129.98,20.45v-12.06h1.46v12.06h-1.46Z"/>
    <path class="st0" d="M133.66,9.77c0-.55.47-.97,1.02-.97s1.04.42,1.04.97-.47.97-1.04.97-1.02-.42-1.02-.97ZM133.96,20.45v-7.81h1.45v7.81h-1.45Z"/>
    <path class="st0" d="M137.41,16.54c0-2.48,1.86-4.1,4.08-4.1s4.1,1.62,4.1,4.1-1.87,4.11-4.1,4.11-4.08-1.64-4.08-4.11ZM144.13,16.54c0-1.61-1.2-2.73-2.64-2.73s-2.61,1.12-2.61,2.73,1.19,2.74,2.61,2.74,2.64-1.12,2.64-2.74Z"/>
  </g>
</svg>