<?xml version="1.0" encoding="UTF-8"?>
<svg id="Layer_1" xmlns="http://www.w3.org/2000/svg" version="1.1" viewBox="0 0 300 47">
  <!-- Generator: Adobe Illustrator 29.4.0, SVG Export Plug-In . SVG Version: 2.1.0 Build 152)  -->
  <defs>
    <style>
      .st0 {
        fill: #fff;
      }
    </style>
  </defs>
  <path class="st0" d="M17.94,14.19h3.78v20.27h-3.78v-3.6c-1.34,2.43-4.17,4.12-7.42,4.12-5.29,0-9.94-4.47-9.94-10.67s4.38-10.63,10.11-10.63c3.04,0,5.9,1.3,7.25,3.69v-3.17h0ZM17.94,24.31c0-4.17-3.51-7.07-6.9-7.07-3.69,0-6.64,3.25-6.64,7.07s2.95,7.12,6.68,7.12,6.86-2.99,6.86-7.12Z"/>
  <path class="st0" d="M46.98,22.75v11.72h-3.78v-11.5c0-3.38-2.08-5.55-4.9-5.55s-6.21,1.69-6.21,6.08v10.98h-3.78V14.19h3.78v3.08c1.22-2.47,4.51-3.6,6.73-3.6,5.03,0,8.2,3.39,8.16,9.07Z"/>
  <path class="st0" d="M69.29,14.19h3.78v17.45c0,9.59-4.34,13.19-11.02,13.19-3.69,0-7.12-1.87-9.11-5.42l3.21-1.69c1.26,2.3,3.65,3.56,5.9,3.56,4.47,0,7.25-2.52,7.25-9.37v-.61c-1.35,2.3-4.3,3.69-7.2,3.69-5.55,0-10.15-4.3-10.15-10.67s4.56-10.63,10.11-10.63c3.04,0,5.9,1.35,7.25,3.69v-3.17l-.02-.02ZM69.29,24.26c0-4.38-3.56-7.03-6.9-7.03-3.69,0-6.64,2.95-6.64,7.03s2.95,7.16,6.64,7.16,6.9-2.82,6.9-7.16Z"/>
  <path class="st0" d="M98.72,25.95h-16.49c.56,3.6,3.17,5.47,6.64,5.47,2.47,0,4.73-1.13,5.9-3.17l3.25,1.3c-1.74,3.51-5.38,5.42-9.29,5.42-5.77,0-10.42-4.3-10.42-10.72s4.64-10.59,10.42-10.59,10.07,4.17,10.07,10.59c0,.56-.04,1.13-.09,1.69h0ZM95.03,22.7c-.48-3.47-2.95-5.47-6.29-5.47s-5.86,1.82-6.47,5.47h12.76Z"/>
  <path class="st0" d="M103.97,34.47V3.18h3.78v31.29h-3.78Z"/>
  <path class="st0" d="M113.52,6.74c0-1.43,1.22-2.52,2.65-2.52s2.69,1.08,2.69,2.52-1.21,2.52-2.69,2.52-2.65-1.08-2.65-2.52ZM114.3,34.47V14.19h3.78v20.27h-3.78Z"/>
  <path class="st0" d="M123.2,24.31c0-6.42,5.08-10.63,10.89-10.63,3.17,0,5.95,1.26,7.72,3.21l-2.39,2.47c-1.26-1.3-3.08-2.13-5.21-2.13-3.99,0-7.2,2.91-7.2,7.07s3.21,7.12,7.2,7.12c2.13,0,3.95-.82,5.21-2.13l2.39,2.47c-1.78,2-4.56,3.21-7.72,3.21-5.82,0-10.89-4.25-10.89-10.67h0Z"/>
  <path class="st0" d="M162.04,14.19h3.78v20.27h-3.78v-3.6c-1.34,2.43-4.17,4.12-7.42,4.12-5.29,0-9.94-4.47-9.94-10.67s4.38-10.63,10.11-10.63c3.04,0,5.9,1.3,7.25,3.69v-3.17h0ZM162.04,24.31c0-4.17-3.51-7.07-6.9-7.07-3.69,0-6.64,3.25-6.64,7.07s2.95,7.12,6.68,7.12,6.86-2.99,6.86-7.12Z"/>
  <path class="st0" d="M204.53,24.35c0,6.42-4.56,10.63-10.11,10.63-3.04,0-5.9-1.3-7.25-3.69v13.02h-3.78V14.19h3.78v3.17c1.35-2.3,4.3-3.69,7.2-3.69,5.55,0,10.15,4.3,10.15,10.68h.01ZM200.71,24.4c0-4.04-2.95-7.16-6.68-7.16s-6.86,2.82-6.86,7.16,3.56,7.03,6.86,7.03c3.73,0,6.68-2.95,6.68-7.03Z"/>
  <path class="st0" d="M225.76,14.19h3.78v20.27h-3.78v-3.6c-1.34,2.43-4.17,4.12-7.42,4.12-5.29,0-9.94-4.47-9.94-10.67s4.38-10.63,10.11-10.63c3.04,0,5.9,1.3,7.25,3.69v-3.17h0ZM225.76,24.31c0-4.17-3.51-7.07-6.9-7.07-3.69,0-6.64,3.25-6.64,7.07s2.95,7.12,6.68,7.12,6.86-2.99,6.86-7.12Z"/>
  <path class="st0" d="M236.13,34.47V3.18h3.78v31.29h-3.78Z"/>
  <path class="st0" d="M245.68,6.74c0-1.43,1.22-2.52,2.65-2.52s2.69,1.08,2.69,2.52-1.21,2.52-2.69,2.52-2.65-1.08-2.65-2.52ZM246.46,34.47V14.19h3.78v20.27h-3.78Z"/>
  <path class="st0" d="M256.79,34.47V3.18h3.78v31.29h-3.78Z"/>
  <path class="st0" d="M266.34,6.74c0-1.43,1.22-2.52,2.65-2.52s2.69,1.08,2.69,2.52-1.21,2.52-2.69,2.52-2.65-1.08-2.65-2.52ZM267.12,34.47V14.19h3.78v20.27h-3.78Z"/>
  <path class="st0" d="M276.06,24.31c0-6.42,4.82-10.63,10.59-10.63s10.63,4.21,10.63,10.63-4.86,10.67-10.63,10.67-10.59-4.25-10.59-10.67ZM293.51,24.31c0-4.17-3.12-7.07-6.86-7.07s-6.77,2.91-6.77,7.07,3.08,7.12,6.77,7.12,6.86-2.91,6.86-7.12Z"/>
</svg>